<?xml version="1.0" encoding="utf-8"?>
<!-- Generator: Adobe Illustrator 26.0.2, SVG Export Plug-In . SVG Version: 6.00 Build 0)  -->
<svg version="1.1" id="Layer_1" xmlns="http://www.w3.org/2000/svg" xmlns:xlink="http://www.w3.org/1999/xlink" x="0px" y="0px"
	 viewBox="0 0 595.28 841.89" style="enable-background:new 0 0 595.28 841.89;" xml:space="preserve">
<style type="text/css">
	.st0{fill:#EE7523;}
	.st1{fill:#FEFDFC;}
	.st2{fill:#FCFAF7;}
</style>
<ellipse class="st0" cx="297.64" cy="420.95" rx="188.66" ry="184.05"/>
<g>
	<path class="st1" d="M273.27,316.02c2.43-2.12,4.98-1.18,7.3-1.18c37.94-0.06,75.87,0.1,113.81-0.18c6.5-0.05,8.36,1.8,8.34,8.33
		c-0.23,65.3-0.23,130.6,0,195.9c0.02,6.52-1.82,8.38-8.32,8.35c-61.57-0.22-123.14-0.13-184.71-0.15c-1.51,0-3.03-0.2-4.86-1.85
		c7.73-2.1,15.5-4.08,23.19-6.31c35.1-10.16,68.91-23.12,98.03-46.02c11.34-8.91,21.06-19.29,28.21-31.95
		c18.06-32.03,11.73-66.31-16.7-90.52c-16.58-14.13-35.74-23.49-56.07-30.74C278.7,318.72,275.64,318.35,273.27,316.02z"/>
	<path class="st2" d="M225.56,447.91c-2.28,0-4.19-0.26-6,0.05c-6.19,1.04-8.4-1.01-7.08-7.47c3.23-15.84,4.72-31.91,5.11-48.05
		c0.11-4.78,1.44-6.71,6.45-6.24c10.81,1.01,21.65,1.71,32.49,2.38c4.22,0.26,5.87,2.06,5.87,6.41
		c-0.01,16.03-3.11,31.39-8.91,46.31c-1.35,3.48-3.54,4.58-7.01,4.79C239.35,446.53,232.26,447.31,225.56,447.91z"/>
	<path class="st2" d="M322.08,389.61c-16.09-2.65-31.31-5.21-46.55-7.65c-3.44-0.55-4.99-2.01-6.02-5.69
		c-8.31-29.53-11.71-34.67-35.34-55.97C264.36,314.61,314.38,353.67,322.08,389.61z"/>
	<path class="st2" d="M262.39,444.54c5.64-16.94,9.06-32.85,9.14-49.31c0.02-3.78,1.55-4.62,5.18-4.12
		c14.11,1.94,28.13,4.25,42,7.52c4,0.94,6.07,2.56,5.52,6.82c-0.2,1.53-0.14,3.09-0.25,4.64c-1.55,20.99-4.46,24.44-24.87,28.28
		C287.32,440.58,275.47,442.35,262.39,444.54z"/>
	<path class="st2" d="M312.27,445.49c-25.41,37.46-58.51,58.18-100.5,65.4c19.5-14.74,34.51-32.94,45.22-54.71
		c0.94-1.92,2.47-2.57,4.42-2.87C277.62,450.85,293.83,448.34,312.27,445.49z"/>
	<path class="st2" d="M207.22,319.56c25.47,6.34,40.3,22.13,49.22,44.15c6.4,15.81,6.1,15.95-10.83,15.08
		c-4.02-0.21-8.03-0.52-12.04-0.85c-15.82-1.31-15.9-1.32-17.32-16.59C215,347.73,211.64,334.57,207.22,319.56z"/>
	<path class="st2" d="M246.81,455.34c-13.36,24.29-30.52,42.17-54.26,53.76c5.84-16.13,11.4-32.03,15.91-48.28
		c0.55-1.98,1.64-3.25,3.81-3.38C223.25,456.77,234.21,456.1,246.81,455.34z"/>
	<path class="st2" d="M354.35,402.09c-6.53-2.68-12.18-5.11-17.91-7.31c-2.51-0.96-4.2-2.22-4.66-5.1
		c-2.7-16.74-11.28-30.56-22.41-43.33C327.26,345.52,353.47,377.91,354.35,402.09z"/>
	<path class="st2" d="M347.82,433.71c-12.76,21.22-29.26,34.15-48.35,44.34c9.1-10.99,16.83-22.65,24.64-34.36
		C328.45,437.18,338.11,437.4,347.82,433.71z"/>
	<path class="st2" d="M329.71,430.12c1.11-6.26,1.56-11.5,3.09-16.41c1.05-3.36-2.46-8.69,3.35-9.96
		c4.05-0.89,16.83,7.44,17.56,10.74c0.72,3.28-1.3,5.28-3.6,6.91C344.27,425.52,337.92,428.55,329.71,430.12z"/>
</g>
</svg>
