<?xml version="1.0" encoding="utf-8"?>
<!-- Generator: Adobe Illustrator 26.0.2, SVG Export Plug-In . SVG Version: 6.00 Build 0)  -->
<svg version="1.1" id="Layer_1" xmlns="http://www.w3.org/2000/svg" xmlns:xlink="http://www.w3.org/1999/xlink" x="0px" y="0px"
	 viewBox="0 0 595.28 841.89" style="enable-background:new 0 0 595.28 841.89;" xml:space="preserve">
<style type="text/css">
	.st0{fill:#87CFEC;}
	.st1{fill:#F5C258;}
	.st2{fill:#FBD362;}
	.st3{fill:#647989;}
	.st4{fill:#3A5569;}
	.st5{fill:#FFF6A0;}
	.st6{fill:#DB8644;}
	.st7{fill:#FEFEFE;}
	.st8{fill:#28A1D9;}
	.st9{fill:#27A1DA;}
	.st10{fill:#2E93B9;}
	.st11{fill:#2F93B9;}
	.st12{fill:#2D93B9;}
	.st13{fill:#2D92B9;}
	.st14{fill:#3B556A;}
	.st15{fill:#29A2D8;}
	.st16{fill:#28A2D9;}
	.st17{fill:#3093B8;}
	.st18{fill:#2F93B8;}
	.st19{fill:#3194B7;}
	.st20{fill:#3193B8;}
	.st21{fill:#2AA2D8;}
	.st22{fill:#29A1D9;}
	.st23{fill:#29A1D8;}
	.st24{fill:#2BA2D7;}
	.st25{fill:#41A6D6;}
	.st26{fill:#EA8579;}
	.st27{fill:#5C6F7D;}
	.st28{fill:#7A8A95;}
	.st29{fill:#516574;}
	.st30{fill:#4F6472;}
	.st31{fill:#647683;}
	.st32{fill:#768792;}
	.st33{fill:#778892;}
	.st34{fill:#596D7A;}
	.st35{fill:#607380;}
</style>
<ellipse class="st0" cx="297.64" cy="420.95" rx="188.66" ry="184.05"/>
<g>
	<path class="st1" d="M176.69,535.34c-0.03-48.45-0.03-96.89-0.16-145.34c-0.01-3.84,1.63-4.59,5.06-4.58
		c25.87,0.1,51.74,0.06,77.6,0.06c1.91,0.68,2.03,2.33,2.18,3.94c0.23,2.48,0.16,4.96,0.16,7.44c0.01,41.03,0,82.06,0,123.09
		c0,1.9-0.03,3.8,0.02,5.69c0.14,5.74,1.28,6.68,7.11,7.02c4.32,0.25,8.91-1.24,12.89,1.66c0.36,0.53,0.37,1.08,0.05,1.63
		c-1.52,1.87-3.71,1.63-5.73,1.64c-31,0.12-62,0.12-93-0.01C180.65,537.59,177.99,538.11,176.69,535.34z"/>
	<path class="st2" d="M281.45,534.71c-5.47,0-10.95-0.26-16.4,0.08c-4.6,0.29-5.73-1.46-5.72-5.78
		c0.14-45.66,0.09-91.32,0.07-136.98c0-2.18-0.14-4.37-0.22-6.55c0,0-0.04-0.36-0.04-0.36c-3.13-6.08-2.02-12.46-0.92-18.68
		c0.43-2.44,3.37-3.54,5.48-4.82c9.8-5.92,19.44-12.08,29.26-17.97c2.49-0.8,4.94-2.27,7.62-0.58c11.1,6.35,21.89,13.21,32.68,20.06
		c1.84,1.17,3.21,2.59,2.99,4.96c-0.05,5.82,0.2,11.65-0.36,17.46l0.04-0.01c2.13,1.91,1.92,4.48,1.94,6.94
		c0.09,12.71,0.04,25.42,0.04,38.13c0.01,31.12,0,62.24,0,93.36c0,13.97-0.42,11.95-12,12.01c-4.12,0.02-8.28,0.53-12.37-0.46
		c-2.38-1.59-1.96-4.11-2-6.37c-0.16-10.66-0.02-21.33-0.08-31.99c-0.04-6.94-0.83-7.69-8.02-7.73c-4.29-0.03-8.58-0.06-12.87,0.01
		c-5.72,0.09-6.78,1.08-6.84,6.66c-0.11,10.81,0.07,21.62-0.11,32.43C283.62,530.76,284.24,533.39,281.45,534.71z"/>
	<path class="st3" d="M294.16,345.18c-10.38,6.45-20.72,12.97-31.19,19.29c-2.54,1.54-3.74,3.17-3.61,6.23
		c0.2,4.8-0.12,9.61-0.22,14.42c-27.14,0-54.28,0-81.49,0c0.03-2.4,1.35-3.3,2.23-4.38c10.19-12.52,20.47-24.97,30.63-37.51
		c1.81-2.23,3.73-3.25,6.74-3.24c25.59,0.13,51.18,0.09,76.77,0.1C296.14,341.73,295.11,343.46,294.16,345.18z"/>
	<path class="st4" d="M176.69,535.34c34.98,0.02,69.95,0.05,104.93,0.07c1.32-1.37,2.99-1.77,4.83-1.8c7.53-0.14,15.07-0.15,22.6,0
		c1.67,0.03,3.2,0.48,4.59,1.39c6.64,0.36,13.39,0.85,19.91,0.02c25.89-3.33,51.84-0.57,77.75-1.46c2.74-0.09,5.69-0.46,7.96,1.78
		c2.07,0.06,4.17,0.37,6.2,0.12c4.17-0.5,5.63,0.84,5.59,5.22c-0.04,4.24-1.29,5.35-5.53,5.34c-84.84-0.12-169.67-0.09-254.51-0.08
		c-1.92,0-3.84,0.12-5.76,0.19c-1.74-2.84-0.68-5.94-0.77-8.91c-0.06-1.94,1.68-1.66,2.95-1.7
		C170.51,535.44,173.6,535.4,176.69,535.34z"/>
	<path class="st5" d="M343.81,299.66c3.77,10.76,3.11,21.32-1.44,32.15c-3.4-3.67-6.6-7.07-11.14-8.75
		c-5.75-2.13-11.28-1.51-16.66,1.19c-2.4,1.21-4.63,2.34-7.47,0.84c-2.21-1.17-4.26,0.17-6.11,1.45c-2.39-0.63-2.58-2.57-2.66-4.49
		c-0.25-6.11-0.27-12.22,0.01-18.33c0.09-1.9,0.25-3.88,2.75-4.37c4.34,4.23,9.24,2.8,13.96,1.06c6.32-2.33,12.45-5.27,19.47-4.56
		C337.98,296.21,341.64,296.19,343.81,299.66z"/>
	<path class="st6" d="M301.09,299.36c-0.98,9.06-0.79,18.12-0.09,27.18c-1.26,4.53-0.55,9.12-0.42,13.69
		c1.24,1.56,1.32,3.05-0.28,4.43c-2.17-1.3-4.17-0.66-6.13,0.52c-0.05-1.7-0.09-3.39-0.14-5.08c0.02-13.08,0.02-26.17,0.09-39.25
		c0.01-1.77-0.63-4.05,2.14-4.55C298.75,295.83,300.64,296.55,301.09,299.36z"/>
	<path class="st1" d="M419.25,535.35c-35.3,0.02-70.6,0.04-105.91,0.06c-0.16-0.31-0.08-0.55,0.23-0.72
		c5.62,0.01,11.25-0.22,16.85,0.1c4.41,0.25,5.47-1.52,5.46-5.59c-0.12-38.83-0.08-77.66-0.07-116.49c0-9.05,0.09-18.1,0.13-27.15
		c26.47-0.04,52.94-0.05,79.4-0.17c3.14-0.01,4.04,1.16,4.03,4.13C419.29,438.13,419.28,486.74,419.25,535.35z"/>
	<path class="st3" d="M300.29,344.66c0.09-1.48,0.18-2.95,0.28-4.43c26.47-0.05,52.94-0.09,79.41-0.18
		c2.01-0.01,3.26,0.87,4.45,2.33c10.66,13.08,21.36,26.12,32.04,39.19c0.62,0.76,1.83,1.54,1.3,2.56c-0.73,1.41-2.36,0.82-3.6,0.82
		c-23.96,0.03-47.92,0.02-71.88,0.03c-2.07,0-4.14,0.09-6.21,0.14c-1.51-3.48-0.37-7.14-0.7-10.7c-0.23-2.46,0.36-4.96-0.36-7.39
		c-6.66-5.32-14.37-9.07-21.44-13.77C309.19,350.34,304.35,348.09,300.29,344.66z"/>
	<path class="st1" d="M335.03,367.02c1.07,4.43,0.24,8.93,0.5,13.39c0.09,1.58-0.23,3.2,0.56,4.69c-0.04,0.16-0.1,0.31-0.18,0.45
		C333.76,379.47,335.35,373.2,335.03,367.02z"/>
	<path class="st7" d="M313.57,534.69c-0.15,0.22-0.23,0.45-0.23,0.72c-10.58,0-21.15,0-31.73,0c0.01-0.25-0.04-0.48-0.16-0.7
		c0.05-14.31,0.19-28.61,0.08-42.92c-0.02-3.29,0.71-4.65,4.38-4.52c7.83,0.27,15.68,0.21,23.51,0.02c3.17-0.08,4.02,1.06,4.01,4.04
		C313.38,505.79,313.51,520.24,313.57,534.69z"/>
	<path class="st8" d="M187.68,472.42c-0.07-7.09-0.08-14.17-0.24-21.25c-0.05-2.19,0.62-3.18,2.97-3.07
		c3.07,0.14,6.16,0.03,9.23,0.04c1.05,0,2.13,0,2.12,1.49c-1.73,7.34-5.83,13.56-9.62,19.93
		C191.11,471.28,189.98,472.7,187.68,472.42z"/>
	<path class="st8" d="M211.61,472.41c-0.06-7.09-0.07-14.17-0.23-21.26c-0.05-2.18,0.58-3.18,2.96-3.07
		c3.07,0.15,6.15,0.04,9.23,0.04c1.06,0,2.13-0.01,2.07,1.5c-1.57,7.37-5.97,13.43-9.55,19.86
		C215.13,471.22,213.81,472.49,211.61,472.41z"/>
	<path class="st9" d="M187.77,433.78c-0.1-7.37-0.2-14.74-0.29-22.11c-0.01-1-0.07-2.22,1.39-2.23c4.1-0.03,8.2,0.04,12.29,0.16
		c0.2,0.01,0.38,0.92,0.57,1.42c-1.7,6.78-5.28,12.69-8.96,18.54C191.6,431.44,190.67,433.8,187.77,433.78z"/>
	<path class="st8" d="M235.52,472.41c-0.09-7.09-0.12-14.18-0.29-21.27c-0.05-2.21,0.71-3.15,3.03-3.05
		c3.08,0.13,6.16,0.03,9.24,0.04c1.06,0,2.14-0.02,2.05,1.51c-1.41,6.8-5.34,12.45-8.73,18.32
		C239.65,469.99,238.68,472.56,235.52,472.41z"/>
	<path class="st9" d="M211.71,433.78c-0.09-7.37-0.19-14.74-0.27-22.11c-0.01-0.99-0.11-2.22,1.37-2.23
		c4.1-0.02,8.2,0.04,12.29,0.16c0.19,0.01,0.36,0.93,0.53,1.43c-1.75,7.38-6,13.55-9.91,19.89
		C214.8,432.43,213.88,433.96,211.71,433.78z"/>
	<path class="st10" d="M248.79,409.49c1.75,0.95,0.87,2.59,0.89,3.87c0.11,5.93-0.05,11.87,0.09,17.79c0.06,2.46-0.81,3.61-3.27,3.2
		c-3.67-0.62-7.69,1.58-11.06-1.34c1.69-7.18,5.98-13.1,9.58-19.37C246.01,411.96,247.24,410.61,248.79,409.49z"/>
	<path class="st9" d="M187.63,511.04c-0.05-6.94-0.04-13.89-0.2-20.83c-0.05-2.21,0.61-3.35,2.95-2.99
		c3.78,0.57,7.78-1.28,11.4,1.01c-1.63,7.4-5.69,13.65-9.61,19.98C191.12,509.9,189.93,511.31,187.63,511.04z"/>
	<path class="st9" d="M248.79,409.49c-0.38,4.24-3.29,7.34-5.29,10.78c-2.52,4.33-4.56,9-8.05,12.75
		c-0.06-6.86-0.03-13.71-0.23-20.57c-0.07-2.59,0.97-3.27,3.38-3.13C241.99,409.5,245.4,409.44,248.79,409.49z"/>
	<path class="st11" d="M211.71,433.78c3.85-6.56,7.7-13.11,11.53-19.68c0.66-1.14,1.23-2.34,2.41-3.08
		c0.07,6.84,0.15,13.68,0.22,20.53c0.01,1.36-0.03,2.84-1.93,2.76C219.85,434.13,215.73,435.11,211.71,433.78z"/>
	<path class="st12" d="M235.52,472.41c3.83-6.44,7.68-12.87,11.49-19.32c0.73-1.24,1.26-2.61,2.54-3.45
		c0.06,6.8,0.05,13.6,0.22,20.39c0.06,2.39-0.66,3.56-3.21,3.23C242.89,472.78,239.08,474.24,235.52,472.41z"/>
	<path class="st9" d="M211.57,511.04c-0.05-6.94-0.04-13.88-0.19-20.82c-0.05-2.18,0.53-3.37,2.92-3.01
		c3.76,0.57,7.75-1.3,11.35,1.03c-1.54,7.4-5.78,13.54-9.57,19.89C215.08,509.82,213.76,511.09,211.57,511.04z"/>
	<path class="st11" d="M187.77,433.78c4.96-7.41,8.58-15.62,13.97-22.77c0.09,6.85,0.18,13.69,0.26,20.54
		c0.02,1.39-0.13,2.82-1.98,2.75C195.94,434.15,191.8,435.09,187.77,433.78z"/>
	<path class="st9" d="M235.46,511.03c-0.06-6.95-0.07-13.9-0.23-20.84c-0.05-2.23,0.67-3.33,2.99-2.98
		c3.76,0.56,7.74-1.3,11.33,1.04c-1.45,7.47-6.01,13.48-9.56,19.97C239.04,509.97,237.62,511.11,235.46,511.03z"/>
	<path class="st12" d="M211.61,472.41c4.24-5.99,7.5-12.56,11.24-18.85c0.82-1.38,1.86-2.62,2.8-3.93
		c0.07,6.95,0.15,13.89,0.19,20.84c0.01,1.1,0.23,2.71-1.45,2.65C220.13,472.97,215.77,474.23,211.61,472.41z"/>
	<path class="st13" d="M235.46,511.03c4.34-5.64,7.25-12.12,10.96-18.12c0.98-1.59,2.09-3.11,3.13-4.66
		c0.06,6.99,0.06,13.99,0.2,20.98c0.04,2.07-0.7,3.04-2.8,2.74C243.14,511.43,239.14,513.18,235.46,511.03z"/>
	<path class="st13" d="M211.57,511.04c4.69-7.6,9.39-15.2,14.08-22.8c0.07,7,0.15,14,0.18,21c0.01,1.1,0.26,2.72-1.46,2.63
		C220.1,511.62,215.71,513.11,211.57,511.04z"/>
	<path class="st12" d="M187.68,472.42c4.77-6.39,7.97-13.71,12.31-20.35c0.55-0.84,1.18-1.63,1.77-2.45
		c0.08,6.95,0.18,13.89,0.22,20.84c0.01,1.11,0.18,2.7-1.48,2.65C196.23,472.99,191.86,474.21,187.68,472.42z"/>
	<path class="st13" d="M187.63,511.04c4.82-6.04,7.82-13.16,11.98-19.59c0.7-1.09,1.45-2.15,2.17-3.22
		c0.07,7.01,0.16,14.02,0.19,21.03c0.01,1.11,0.19,2.71-1.52,2.61C196.19,511.62,191.79,513.11,187.63,511.04z"/>
	<path class="st14" d="M324.61,386.02c0.06,14.99-12.45,27.42-27.55,27.37c-15.08-0.05-27.76-12.62-27.63-27.4
		c0.13-14.79,12.36-26.86,27.44-27.08C311.99,358.68,324.55,370.96,324.61,386.02z"/>
	<path class="st10" d="M302.88,430.27c6.42-1.13,12.88-0.29,19.32-0.47c1.17-0.03,1.97,0.49,1.97,1.8c0,0.29,0.04,0.58,0.02,0.87
		c-0.36,5.31,0.81,10.68-0.62,15.95c-6.59,0.72-13.21,0.18-19.81,0.28c-1.08,0.02-1.65-0.67-1.59-1.67
		c0.32-5.58-0.92-11.22,0.69-16.75c1.76,1.24,2.04,3.03,2.12,5.01c0.1,2.41-0.41,4.9,0.72,7.98c3.89-3.73,7.99-6.45,11.81-10.54
		c-3.38-0.65-6.27-0.29-9.11-0.37C306.28,432.31,304.24,432.21,302.88,430.27z"/>
	<path class="st10" d="M270.25,456.63c6.38-1.45,12.84-0.31,19.26-0.62c1.2-0.06,2,0.5,2.01,1.77c0.02,5.1,0.02,10.2,0.01,15.29
		c0,0.93-0.27,1.87-1.4,1.83c-6.67-0.23-13.39,1-20.01-0.68c2.14-4.48,5.99-7.37,9.73-10.41c1.67-1.35,3.31-2.82,4.8-4.95
		c-3.3-0.39-6.35-0.14-9.37-0.23C273.33,458.58,271.43,458.5,270.25,456.63z"/>
	<path class="st15" d="M269.41,447.92c-0.06-5.1-0.09-10.2-0.2-15.3c-0.04-1.71,0.35-2.87,2.38-2.8c6.31,0.23,12.65-0.6,18.94,0.48
		c0.48,0.91,0.11,1.9-0.41,2.42c-5.98,6.01-11.35,12.82-19.96,15.54C269.93,448.33,269.64,448.12,269.41,447.92z"/>
	<path class="st10" d="M303.17,456.62c6.38-1.44,12.84-0.31,19.26-0.62c1.51-0.07,2.08,0.82,2.08,2.2
		c-0.01,4.95-0.01,9.91-0.03,14.86c0,0.93-0.28,1.88-1.41,1.84c-6.67-0.22-13.38,0.99-20-0.66c2.95-6.7,10.13-9.48,14.62-15.32
		c-3.34-0.48-6.42-0.17-9.47-0.28C306.28,458.57,304.35,458.54,303.17,456.62z"/>
	<path class="st10" d="M269.41,447.92c5.8-3.04,9.98-8.05,14.96-12.08c2.12-1.72,4.71-3.06,6.17-5.54
		c1.56,5.51,0.35,11.12,0.67,16.68c0.06,0.98-0.44,1.77-1.52,1.71C282.93,448.32,276.11,449.76,269.41,447.92z"/>
	<path class="st16" d="M303.17,456.62c6.31,0,12.62,0,18.93,0c0.21,0.36,0.41,0.72,0.62,1.08c-6.42,5.66-12.49,11.68-19.65,16.54
		C302.8,468.37,302.61,462.49,303.17,456.62z"/>
	<path class="st16" d="M270.25,456.63c6.32,0,12.64,0,18.95,0c0.18,0.33,0.36,0.66,0.54,0.98c-6.37,5.73-12.5,11.71-19.63,16.62
		C269.77,468.36,269.52,462.49,270.25,456.63z"/>
	<path class="st17" d="M408.75,448.68c1.29,7.5,0.3,15.05,0.54,22.58c0.05,1.5-0.87,2.03-2.27,1.99c-0.44-0.01-0.89,0-1.33,0.01
		c-11.23,0.33-11.23,0.33-11.23-10.69c0-3.65,0.12-7.3-0.04-10.93c-0.12-2.56,0.64-3.89,3.45-3.59c3.62,0.39,7.33-0.72,10.89,0.64
		c-1.79,1.88-4.13,2.2-6.52,2.09c-3.69-0.18-4.97,1.57-4.88,5.03c0.08,3.48,0.29,6.99-0.16,9.44
		C400.46,460.12,402.41,452.97,408.75,448.68z"/>
	<path class="st18" d="M371.23,448.66c4.03-1.3,8.17-0.34,12.25-0.53c1.91-0.09,1.95,1.32,1.95,2.71
		c-0.01,6.56-0.06,13.13,0.02,19.69c0.02,2.11-0.85,2.94-2.9,2.73c-0.15-0.01-0.3,0-0.44,0c-11.56,0.5-11.68,0.5-11.51-10.82
		C370.67,457.85,369.7,453.19,371.23,448.66c1.52,1.15,2.14,2.67,2.14,4.56c0,4.08,0.16,8.16-0.11,11.95
		c1.59-3.56,4.18-6.88,6.12-10.56c1.34-2.54,0.9-3.85-2.2-3.81C374.93,450.83,372.71,450.74,371.23,448.66z"/>
	<path class="st18" d="M347.35,448.73c4-1.45,8.13-0.35,12.19-0.61c1.9-0.12,2,1.24,1.99,2.65c-0.02,6.55-0.06,13.11,0.02,19.66
		c0.02,2.02-0.63,3.04-2.78,2.82c-0.29-0.03-0.59-0.01-0.88,0c-11.22,0.3-11.33,0.3-11.17-10.71c0.07-4.6-0.85-9.25,0.6-13.8
		c1.78,1.23,2.07,3.04,2.07,5c0,3.73,0.12,7.47-0.1,11.35c1.88-3.12,3.77-6.06,5.42-9.15c2.55-4.77,2.56-4.83-2.74-5.18
		C350.11,450.65,348.49,450.29,347.35,448.73z"/>
	<path class="st19" d="M408.67,409.59c1.49,7.59,0.33,15.26,0.61,22.89c0.05,1.26-0.78,1.78-1.96,1.85
		c-0.44,0.03-0.88,0.03-1.32,0.05c-11.53,0.63-11.67,0.63-11.46-10.8c0.09-4.68-1.09-9.46,0.79-14.04c1.13,0.8,1.89,1.8,1.92,3.24
		c0.12,4.92,0.51,9.85-0.23,14.13c1.99-4.98,5.61-9.79,8.53-14.99C406.23,410.71,407.6,410.33,408.67,409.59z"/>
	<path class="st20" d="M384.7,409.56c1.68,7.71,1.64,15.76,0.14,23.15c-0.78,3.85-7.76,1.06-11.9,1.61
		c-2.36,0.31-2.41-1.48-2.4-3.19c0.03-4.36-0.14-8.73,0.06-13.08c0.13-2.81-0.93-5.76,0.74-8.44c1.38,0.84,1.94,2.1,1.96,3.65
		c0.06,4.91,0.41,9.83-0.13,13.52C376.45,421.58,378.65,414.37,384.7,409.56z"/>
	<path class="st17" d="M360.72,409.52c1.84,4.59,0.66,9.36,0.74,14.02c0.21,11.83,0.07,11.83-11.81,10.83
		c-1.32-0.11-2.95,0.03-2.9-1.83c0.23-7.63-0.93-15.3,0.6-22.89c1.87,1,1.97,2.76,2.01,4.54c0.07,4.08,0.13,8.16-0.04,11.9
		C353.19,420.86,355.01,413.91,360.72,409.52z"/>
	<path class="st18" d="M408.69,487.5c1.44,7.45,0.3,14.97,0.61,22.44c0.06,1.49-0.78,2.07-2.2,2.03c-0.29-0.01-0.59,0-0.88,0.01
		c-11.75,0.65-11.89,0.65-11.68-10.96c0.08-4.53-1.12-9.16,0.75-13.6c1.67,1.08,2.04,2.71,2.05,4.53c0.02,4.05,0.2,8.11-0.1,11.61
		C401.09,498.64,402.43,491.4,408.69,487.5z"/>
	<path class="st18" d="M384.71,487.45c1.6,7.57,0.33,15.21,0.67,22.82c0.05,1.03-0.56,1.6-1.61,1.67c-0.59,0.04-1.18,0.03-1.77,0.05
		c-11.46,0.42-11.58,0.41-11.39-10.84c0.08-4.55-1.03-9.19,0.7-13.67c1.68,1.07,2,2.71,2.04,4.53c0.07,3.62,0,7.23,0.05,11.42
		c2.07-3.28,3.83-6.18,5.46-9.16C380.33,491.6,381.83,488.94,384.71,487.45z"/>
	<path class="st10" d="M360.74,487.4c1.79,5.03,0.6,10.22,0.72,15.33c0.23,9.26,0.05,8.98-9.37,9.37c-4.63,0.19-5.91-1.27-5.48-5.59
		c0.63-6.29-0.74-12.68,0.72-18.96c1.71,1.07,2.02,2.73,2.04,4.54c0.03,4.06,0.19,8.13-0.14,12.32c2.29-4.9,5.41-9.22,7.94-13.87
		C358.01,489.02,359.59,488.49,360.74,487.4z"/>
	<path class="st21" d="M360.72,409.52c-1.26,5.54-5.22,9.7-7.77,14.59c-1.37,2.63-2.48,5.55-5.6,8.48c0-8.27,0-15.6,0-22.93
		C351.81,409.07,356.26,409.31,360.72,409.52z"/>
	<path class="st22" d="M384.7,409.56c-2.99,8.07-8.39,14.78-13.35,22.06c0-7.34,0-14.68,0-22.02
		C375.79,409.16,380.24,409.24,384.7,409.56z"/>
	<path class="st8" d="M408.67,409.59c-3.21,7.95-8.55,14.68-13.35,22c0-7.35,0-14.7,0-22.05
		C399.77,409.25,404.22,409.16,408.67,409.59z"/>
	<path class="st15" d="M360.74,487.4c-3.03,8.1-8.62,14.77-12.34,22.5c-0.35-0.08-0.71-0.17-1.06-0.25c0-7.36,0-14.73,0-22.09
		C351.79,486.88,356.26,487.14,360.74,487.4z"/>
	<path class="st22" d="M384.71,487.45c-3.1,7.83-8.38,14.41-12.14,21.86c-0.42-0.1-0.84-0.2-1.25-0.3c0-7.17,0-14.35,0-21.52
		C375.78,487,380.25,487.04,384.71,487.45z"/>
	<path class="st8" d="M408.69,487.5c-3.43,7.57-8.21,14.36-13.4,21.39c0-7.15,0-14.31,0-21.46
		C399.76,487.08,404.23,486.97,408.69,487.5z"/>
	<path class="st7" d="M321.21,385.99c0.12,12.85-10.59,23.66-23.79,23.99c-13.04,0.33-24.41-10.67-24.53-23.74
		c-0.12-12.98,11.12-24.08,24.28-23.99C310.25,362.33,321.09,373.03,321.21,385.99z"/>
	<path class="st21" d="M302.88,430.27c6.44,0,12.88,0,19.32,0c0.12,0.36,0.24,0.72,0.36,1.08c-6.12,5.28-12.24,10.57-18.36,15.85
		c-0.45-0.1-0.89-0.19-1.34-0.29c0-5.55,0-11.09,0-16.64C302.87,430.29,302.88,430.27,302.88,430.27z"/>
	<path class="st23" d="M408.75,448.68c-3.55,7.54-8.3,14.39-13.26,21.54c0-6.51-0.11-13.02,0.07-19.53
		c0.05-1.89,1.99-1.84,3.47-1.87c3.25-0.06,6.49-0.08,9.74-0.12C408.77,448.7,408.75,448.68,408.75,448.68z"/>
	<path class="st21" d="M371.23,448.66c3.53,0.05,7.07,0.09,10.6,0.17c1.49,0.03,2.98,0.5,1.96,2.3c-3.7,6.52-7.58,12.94-11.39,19.39
		c-0.39-0.1-0.77-0.19-1.16-0.29C371.24,463.04,371.24,455.85,371.23,448.66C371.24,448.66,371.23,448.66,371.23,448.66z"/>
	<path class="st24" d="M347.35,448.73c3.39,0.03,6.79,0.08,10.18,0.07c2.61-0.01,3.17,1.13,1.92,3.26
		c-3.6,6.16-7.24,12.3-10.86,18.44c-0.42-0.03-0.85-0.05-1.27-0.08c0-7.23,0-14.45,0-21.68
		C347.32,448.75,347.35,448.73,347.35,448.73z"/>
	<path class="st25" d="M296.02,386.55c0.22-0.2,0.38-0.44,0.49-0.7c0.15-0.39,0.43-0.63,0.84-0.74c0.41,0.02,0.77,0.16,1.1,0.4
		c0.9,1.53,2.24,3.74-1.16,3.03c-3.32-0.69-6.61-0.04-9.86-0.7C290.03,385.68,293.3,387.92,296.02,386.55z"/>
	<path class="st26" d="M297.62,385.19c-0.37,0.22-0.74,0.44-1.11,0.66c0.2-3.66,0.4-7.32,0.6-10.98
		C299.06,378.22,297.97,381.72,297.62,385.19z"/>
	<path class="st27" d="M297.62,385.19c-0.17-3.45-0.34-6.9-0.51-10.33c1.84-0.67,1.35,0.83,1.37,1.57c0.05,3.03-0.01,6.05-0.02,9.08
		C298.17,385.4,297.89,385.3,297.62,385.19z"/>
	<path class="st28" d="M317.36,385.44c0.79,1.17,1.81,2.3,0.68,3.69c-0.63,0.78-2.85,0.62-1.9-0.13
		C317.88,387.65,315.53,386.46,317.36,385.44z"/>
	<path class="st29" d="M277.33,388.27c-1.43-0.18-0.12-1.26-0.61-1.93c-0.49-0.68,0.46-1.59,1.33-1.56
		c1.21,0.05,0.99,1.14,0.94,1.94C278.93,387.71,278.36,388.25,277.33,388.27z"/>
	<path class="st30" d="M296.02,386.55c-2.63,1.98-5.81,0.33-8.59,1.28c0.29-2.66,2.31-1.06,3.49-1.25
		C292.57,386.32,294.31,386.54,296.02,386.55z"/>
	<path class="st31" d="M297.17,406.63c-1.99,0.68-2.1-0.53-1.8-1.87c0.24-1.04,1.04-2.19,2.14-1.47c1.32,0.86-1.13,0.76-0.74,1.62
		C296.8,405.5,298.7,405.68,297.17,406.63z"/>
	<path class="st32" d="M298.96,366.27c0.06,0.55,0.26,1.13,0.14,1.65c-0.14,0.63,1.41,1.6-0.32,1.86c-0.53,0.08-1.32,0.06-1.62-0.25
		c-0.86-0.91,0.09-1.49,0.65-2.08c0.39-0.41,0.84-0.78,1.26-1.16C299.07,366.29,298.96,366.27,298.96,366.27z"/>
	<path class="st33" d="M294.36,364.91c2,1.13,1.32,2.63,0.76,4.14C294.87,367.67,294.61,366.29,294.36,364.91z"/>
	<path class="st34" d="M297.17,406.63c-0.13-0.57-0.26-1.15-0.4-1.72c0.9,0.02,1.8,0.02,1.77,1.29c-0.01,0.56,0.11,1.23-0.69,1.27
		C297.64,407.47,297.4,406.92,297.17,406.63z"/>
	<path class="st35" d="M298.96,366.27c0,0,0.11,0.01,0.11,0.02c-0.23-0.86-1.69-0.31-1.63-1.39c0.01-0.13,0.78-0.4,1.11-0.3
		C299.55,364.89,300.09,365.42,298.96,366.27z"/>
</g>
</svg>
