<?xml version="1.0" encoding="utf-8"?>
<!-- Generator: Adobe Illustrator 26.0.2, SVG Export Plug-In . SVG Version: 6.00 Build 0)  -->
<svg version="1.1" id="Layer_1" xmlns="http://www.w3.org/2000/svg" xmlns:xlink="http://www.w3.org/1999/xlink" x="0px" y="0px"
	 viewBox="0 0 595.28 841.89" style="enable-background:new 0 0 595.28 841.89;" xml:space="preserve">
<style type="text/css">
	.st0{fill:#87CFEC;}
	.st1{fill:#A5ADC3;}
	.st2{fill:#959DAF;}
	.st3{fill:#454D58;}
	.st4{fill:#3E444D;}
	.st5{fill:#BDD7FA;}
</style>
<ellipse class="st0" cx="304.74" cy="420.95" rx="188.66" ry="184.05"/>
<g>
	<path class="st1" d="M163.18,414.33c1.56-1.79,3.31-2,5.38-0.86c5.22,2.87,10.94,4.73,15.97,8c0.09,7.44,0.18,14.88,0.27,22.33
		c-0.07,0.18-0.14,0.35-0.21,0.53c-2.53,0.49-4.77,1.75-7.04,2.84c-4.75,2.3-9.46,4.68-14.37,6.63
		C163.18,440.63,163.18,427.48,163.18,414.33z"/>
	<path class="st2" d="M163.18,453.79c4.91-1.95,9.62-4.33,14.37-6.63c2.28-1.1,4.51-2.36,7.04-2.84c0.09,3.27,0.19,6.54,0.28,9.81
		c-5.37,2.53-10.78,4.99-16.09,7.64c-2.16,1.08-3.95,1.18-5.6-0.75C163.18,458.6,163.18,456.19,163.18,453.79z"/>
	<path class="st1" d="M207.46,519.95c-0.02-19.16-0.05-38.32-0.07-57.48c0-2.78-0.02-5.55-0.04-8.33c-0.15-0.09-0.22-0.23-0.21-0.4
		c0.18-0.12,0.23-0.29,0.15-0.49c-0.01-3.15-0.01-6.3-0.02-9.45c0.04-7.54,0.08-15.08,0.12-22.62c-0.09-4.8-0.29-9.59,2.72-13.8
		c2.93-4.1,6.78-6.39,11.82-6.45c5.96-0.07,11.92-0.01,17.88-0.04c0.98-0.01,2.02,0.3,2.94-0.35c2.81,0.01,5.63,0.02,8.44,0.03
		c0.74,0.55,1.6,0.33,2.41,0.33c23.39,0.01,46.78,0.01,70.17,0c0.81,0,1.67,0.19,2.42-0.32c3.37-0.02,6.74-0.04,10.11-0.05
		c0.91,0.67,1.96,0.36,2.94,0.36c10.58,0.02,21.16-0.01,31.75,0.03c9.13,0.03,15.55,6.56,15.58,15.76
		c0.02,4.62-0.02,9.25,0.02,13.87c0.01,0.96-0.42,2.07,0.61,2.82c-0.39,0.52-0.65,1.05-0.65,1.75c0.06,13.28,0.1,26.56,0.15,39.84
		c-0.05,3.33-0.09,6.67-0.14,10c-0.03,11.49-0.06,22.99-0.1,34.48c-2.72,7.49-7.82,12.11-15.96,12.12
		c-49.19,0.09-98.37,0.08-147.56,0c-5.53-0.01-10.03-2.47-13.23-7.22C208.79,522.92,208.74,521.12,207.46,519.95z M296.97,429.88
		c-13.18,0-26.35-0.01-39.53,0.01c-3.87,0.01-6.31,2.35-6.32,6.13c-0.02,15.19-0.02,30.38,0.02,45.56c0.01,4.31,2.37,6.63,6.72,6.64
		c26.08,0.02,52.15,0.02,78.23,0c4.39,0,6.76-2.44,6.77-6.92c0.02-14.82,0.03-29.64,0.01-44.45c0-4.74-2.24-6.96-6.92-6.96
		C322.95,429.87,309.96,429.88,296.97,429.88z M297.01,516.04c1.93,0,3.87,0.08,5.79-0.02c2.45-0.13,3.58-1.59,3.61-4
		c0.03-2.28-1.53-4.25-3.71-4.3c-3.86-0.1-7.73-0.12-11.59,0.01c-2.45,0.08-3.53,1.65-3.55,4.05c-0.02,2.66,1.14,4.1,3.64,4.24
		C293.14,516.13,295.08,516.04,297.01,516.04z"/>
	<path class="st3" d="M281,349.86c-0.76-18.3,11.82-37.56,29.62-45.35c32.29-14.15,68.47,8.39,70.17,43.73
		c0.02,0.36-0.1,0.72-0.15,1.08c-1.06,0.69-1,1.88-1.27,2.91c-2.14,8.18-5.8,15.63-11.62,21.73c-11.61,12.17-25.7,17.86-42.66,15.97
		c-11.73-1.3-21.69-6.27-29.87-14.51c-6.64-6.69-11.14-14.86-13.14-24.23C281.94,350.49,281.82,349.94,281,349.86z M313.98,346.49
		c-1.61,7.05,0.25,13.06,5.83,17.6c5.55,4.52,11.77,5.26,18.38,2.36c8.23-3.6,11.79-13.83,9.63-19.38
		c-0.99-7.8-8.36-14.08-16.8-14.32C323.05,332.53,315.22,338.85,313.98,346.49z"/>
	<path class="st3" d="M386.71,474.95c-0.04-13.28-0.09-26.56-0.15-39.84c0-0.7,0.26-1.23,0.65-1.75
		c17.4-9.61,34.8-19.23,52.21-28.84c0.89-0.49,1.76-1.02,2.69-1.41c2.11-0.9,3.87,0.14,4.17,2.42c0.06,0.46,0.02,0.92,0.02,1.39
		c0,32.86,0,65.72,0,98.58c0,0.55-0.09,1.1-0.13,1.65c-3.27-0.79-5.84-2.98-8.71-4.53C420.49,493.48,403.95,483.57,386.71,474.95z"
		/>
	<path class="st3" d="M212.36,363.75c-0.07-15.38,12.4-29.87,28.21-32.8c17.63-3.26,34.21,6.65,39.88,23.85
		c0.07,0.22,0.31,0.38,0.48,0.56c0.96,2.4,1.16,4.93,1.22,7.48c0.1,0.14,0.08,0.26-0.07,0.35c-0.8,0.05-0.96,0.58-1.16,1.28
		c-1.81,6.34-5.02,11.81-9.93,16.28c-8.13,7.4-17.49,10.88-28.48,9.15c-14.35-2.25-23.91-10.3-28.63-24.15
		C213.62,364.98,213.68,363.79,212.36,363.75z M237.23,360.96c-2.24,4.63-1.1,9.85,2.9,13.21c3.8,3.18,9.89,3.27,13.85,0.21
		c3.99-3.09,5.31-8.26,3.3-12.86c-1.33-4.19-5.16-7.02-9.69-7.19C242.99,354.15,238.87,356.79,237.23,360.96z"/>
	<path class="st2" d="M207.46,519.95c1.28,1.17,1.33,2.97,2.27,4.37c3.2,4.76,7.7,7.21,13.23,7.22c49.19,0.08,98.37,0.09,147.56,0
		c8.13-0.01,13.23-4.63,15.96-12.12c0.01,3.59,0.54,7.21-0.44,10.76c-1.94,6.99-7.61,11.46-14.79,11.46
		c-49.54,0.02-99.07,0.03-148.61,0c-8.61-0.01-15.14-6.65-15.24-15.31C207.37,524.2,207.44,522.08,207.46,519.95z"/>
	<path class="st4" d="M282.15,362.84c-0.05-2.55-0.26-5.08-1.22-7.48c0.02-1.83,0.05-3.66,0.07-5.5c0.82,0.07,0.93,0.62,1.08,1.33
		c2,9.38,6.5,17.55,13.14,24.23c8.18,8.24,18.14,13.2,29.87,14.51c16.96,1.89,31.06-3.81,42.66-15.97
		c5.82-6.1,9.48-13.55,11.62-21.73c0.27-1.03,0.21-2.22,1.27-2.91c0.54,12.38-3.38,23.3-11.06,32.84
		c-8.57,10.64-19.85,16.52-33.28,18.35c-3.37,0.02-6.74,0.04-10.11,0.05c-11.58-1.33-21.65-5.88-30.12-14
		C289.2,379.97,284.98,371.82,282.15,362.84z"/>
	<path class="st4" d="M212.36,363.75c1.32,0.04,1.26,1.23,1.53,2.01c4.71,13.85,14.27,21.89,28.63,24.15
		c10.99,1.72,20.34-1.75,28.48-9.15c4.91-4.47,8.12-9.93,9.93-16.28c0.2-0.69,0.35-1.23,1.16-1.28
		c1.35,17.79-11.43,34.79-30.88,37.35c-2.81-0.01-5.63-0.02-8.44-0.03c-15.99-2.79-27.05-13.35-30.06-28.79
		C212.19,369.11,211.85,366.44,212.36,363.75z"/>
	<path class="st4" d="M386.71,474.95c17.23,8.62,33.78,18.53,50.73,27.66c2.87,1.55,5.44,3.74,8.71,4.53
		c0.05,1.66,0.15,3.33,0.13,4.99c-0.05,3.48-1.98,4.62-5.06,2.93c-8.72-4.78-17.39-9.64-26.1-14.44
		c-9.51-5.24-19.03-10.46-28.55-15.68C386.62,481.61,386.67,478.28,386.71,474.95z"/>
	<path class="st3" d="M207.39,421.18c-0.04,7.54-0.08,15.08-0.12,22.62c-7.49,0-14.98,0-22.47-0.01
		c-0.09-7.44-0.18-14.88-0.27-22.33c5.31-0.74,10.64-0.16,15.96-0.32C202.79,421.08,205.09,421.16,207.39,421.18z"/>
	<path class="st4" d="M184.8,443.79c7.49,0,14.98,0,22.47,0.01c0.01,3.15,0.01,6.3,0.02,9.45c-0.05,0.16-0.1,0.33-0.15,0.49
		c-0.01,0.18,0.06,0.31,0.21,0.4c-7.49,0-14.99-0.01-22.48-0.01c-0.09-3.27-0.19-6.54-0.28-9.81
		C184.66,444.14,184.73,443.96,184.8,443.79z"/>
	<path class="st5" d="M296.97,429.88c12.99,0,25.99-0.01,38.98,0c4.69,0,6.92,2.22,6.92,6.96c0.01,14.82,0.01,29.64-0.01,44.45
		c-0.01,4.48-2.37,6.92-6.77,6.92c-26.08,0.02-52.15,0.02-78.23,0c-4.35,0-6.71-2.32-6.72-6.64c-0.04-15.19-0.04-30.38-0.02-45.56
		c0.01-3.78,2.45-6.12,6.32-6.13C270.61,429.86,283.79,429.88,296.97,429.88z"/>
	<path class="st2" d="M297.01,516.04c-1.93,0-3.87,0.09-5.79-0.02c-2.51-0.14-3.66-1.58-3.64-4.24c0.01-2.4,1.1-3.97,3.55-4.05
		c3.86-0.12,7.73-0.11,11.59-0.01c2.17,0.05,3.74,2.03,3.71,4.3c-0.03,2.41-1.16,3.87-3.61,4
		C300.88,516.12,298.94,516.04,297.01,516.04z"/>
	<path class="st3" d="M207.14,453.73c0.05-0.16,0.1-0.33,0.15-0.49C207.37,453.44,207.32,453.61,207.14,453.73z"/>
	<path class="st1" d="M313.98,346.49c1.25-7.64,9.07-13.95,17.03-13.73c8.44,0.23,15.81,6.51,16.8,14.32
		c-1.63,0.36-1.77,2.01-2.5,3.08c-5.61,8.18-16.95,9.96-25,4.12C317.41,352.17,316.17,349,313.98,346.49z"/>
	<path class="st2" d="M313.98,346.49c2.2,2.51,3.44,5.68,6.33,7.78c8.05,5.84,19.39,4.06,25-4.12c0.73-1.07,0.88-2.72,2.5-3.08
		c2.16,5.56-1.4,15.78-9.63,19.38c-6.61,2.89-12.83,2.16-18.38-2.36C314.23,359.55,312.37,353.54,313.98,346.49z"/>
	<path class="st2" d="M257.28,361.51c2.01,4.6,0.69,9.77-3.3,12.86c-3.95,3.07-10.05,2.98-13.85-0.21c-4-3.35-5.15-8.58-2.9-13.21
		c0.29,0.22,0.66,0.37,0.85,0.66c3.92,5.88,12.57,6.48,16.95,1.27C255.61,362.19,256.24,361.48,257.28,361.51z"/>
	<path class="st1" d="M257.28,361.51c-1.05-0.03-1.67,0.68-2.25,1.38c-4.38,5.22-13.03,4.61-16.95-1.27
		c-0.19-0.28-0.56-0.44-0.85-0.66c1.63-4.17,5.75-6.81,10.35-6.64C252.13,354.48,255.95,357.32,257.28,361.51z"/>
</g>
</svg>
