<?xml version="1.0" encoding="utf-8"?>
<!-- Generator: Adobe Illustrator 26.0.2, SVG Export Plug-In . SVG Version: 6.00 Build 0)  -->
<svg version="1.1" id="Layer_1" xmlns="http://www.w3.org/2000/svg" xmlns:xlink="http://www.w3.org/1999/xlink" x="0px" y="0px"
	 viewBox="0 0 595.28 841.89" style="enable-background:new 0 0 595.28 841.89;" xml:space="preserve">
<style type="text/css">
	.st0{fill:#87CFEC;}
	.st1{fill:#3C3F43;}
	.st2{fill:#FFFFFF;}
	.st3{fill:#706F6F;}
</style>
<ellipse class="st0" cx="297.64" cy="420.95" rx="188.66" ry="184.05"/>
<g>
	<path class="st1" d="M243.79,351.51c-13.01,2.49-26.03,4.97-39.04,7.46c0.01,0.31,0.02,0.62,0.02,0.92c13.29,0,26.57,0,39.86,0
		c-10.75,10.79-21.5,21.58-32.86,32.97c5.77,0,10.72-0.09,15.65,0.04c2.16,0.06,3.71-0.59,5.24-2.13
		c8.14-8.24,16.41-16.34,24.58-24.55c2-2.01,4.36-3.7,5.79-6.24c15.04,0.06,30.07,0.12,45.11,0.18
		c-10.62,10.67-21.24,21.34-32.54,32.69c6.58,0,12.03-0.04,17.49,0.02c1.62,0.02,2.41-1.1,3.36-2.05c5.03-5,10.1-9.95,15.05-15.03
		c5.1-5.23,10.67-10.02,15.3-15.71c15.02,0.02,30.04,0.05,45.06,0.07c-10.62,10.68-21.25,21.37-32.51,32.69c6.53,0,12,0,17.47,0
		c0.89,0,1.65-0.22,2.34-0.91c10.5-10.6,21.02-21.18,31.54-31.77c7.85-0.07,15.7-0.07,23.54-0.26c2.52-0.06,2.43,1.36,2.42,3.09
		c-0.03,11.09-0.01,22.19-0.02,33.28c0,44.13-0.26,88.26,0.14,132.39c0.12,13.6-9.71,21.85-21.83,21.79
		c-64.2-0.32-128.4-0.15-192.6-0.15c-13.86,0-21.53-7.63-21.53-21.45c-0.01-44.38,0.19-88.76-0.12-133.13
		c-0.11-15.93-1.41-31.84-2.18-47.76c-0.53-10.82,5.48-18.56,16.22-20.73c3.78-0.76,7.59-1.36,11.38-2.03
		c1.26,0.97,2.48,2,3.78,2.91C221.19,335.93,232.49,343.71,243.79,351.51z M257.15,422.08c-0.49-0.09-0.98-0.25-1.46-0.25
		c-19.56-0.02-39.13,0.03-58.69-0.07c-2.55-0.01-2.78,1.11-2.77,3.16c0.07,12.34,0.03,24.67,0.03,37.01
		c0,22.56-0.01,45.11,0.01,67.67c0,5.12,1.97,7.23,6.81,7.26c5.98,0.03,11.96-0.06,17.94-0.1c0.87,0.05,1.74,0.14,2.61,0.14
		c58.08,0.01,116.16,0.01,174.24,0.01c0.62,0,1.25,0.01,1.87-0.03c3.01-0.18,4.83-1.81,5.4-4.71c0.31-1.57,0.4-3.21,0.4-4.82
		c0.02-31.03,0.02-62.07-0.01-93.1c0-1.22,0.33-2.5-0.43-3.64c0.04-1.12,0.11-2.24,0.1-3.36c-0.07-6.22,0.76-5.42-5.27-5.43
		c-45.32-0.02-90.63,0-135.95,0.02C260.37,421.83,258.76,421.99,257.15,422.08z M191.87,352.65c-2.53-0.05-3.88,1.22-3.92,3.31
		c-0.05,2.07,1.22,3.48,3.47,3.53c2.1,0.04,3.28-1.29,3.45-3.16C195.05,354.2,193.82,352.88,191.87,352.65z M195.1,369.18
		c-0.48-1.73-1.5-3.1-3.77-2.92c-2.03,0.17-3.16,1.39-3.13,3.4c0.03,2.19,1.28,3.45,3.5,3.4
		C193.96,373.02,194.94,371.61,195.1,369.18z"/>
	<path class="st1" d="M224.76,321.93c14.7-3.18,29.54-5.65,44.35-8.23c0.66,1.3,2.01,1.77,3.1,2.53
		c11.35,7.95,22.71,15.87,34.08,23.79c-11.92,2.25-23.83,4.52-35.76,6.76c-2.79,0.52-5.61,0.94-8.41,1.41
		c-1.06-0.83-2.09-1.71-3.19-2.48C247.55,337.77,236.16,329.85,224.76,321.93z"/>
	<path class="st1" d="M369.29,328.67c-14.74,2.69-29.48,5.37-44.22,8.06c-1.28-0.96-2.54-1.96-3.85-2.88
		c-11.25-7.87-22.51-15.72-33.76-23.57c14.67-2.71,29.34-5.41,44.01-8.12c1.08,0.83,2.13,1.7,3.25,2.48
		C346.24,312.66,357.76,320.66,369.29,328.67z"/>
	<path class="st1" d="M350.48,298.92c10.6-2.02,21.2-4.06,31.8-6.05c4.74-0.89,9.43-2.24,14.35-0.84
		c6.75,1.92,11.45,6.06,13.46,12.73c1.32,4.38,1.81,9,2.75,13.49c0.35,1.67-0.12,2.58-1.86,2.87c-7.83,1.34-15.66,2.72-23.49,4.08
		c-0.48-1.29-1.77-1.67-2.75-2.36C373.34,314.86,361.91,306.89,350.48,298.92z"/>
	<path class="st2" d="M263.03,359.98c-1.44,2.54-3.79,4.23-5.79,6.24c-8.17,8.21-16.44,16.31-24.58,24.55
		c-1.53,1.55-3.08,2.19-5.24,2.13c-4.94-0.14-9.88-0.04-15.65-0.04c11.35-11.39,22.11-22.18,32.86-32.97
		C250.76,359.92,256.9,359.95,263.03,359.98z"/>
	<path class="st2" d="M350.48,298.92c11.43,7.97,22.86,15.94,34.27,23.93c0.98,0.69,2.27,1.06,2.75,2.36
		c-6.07,1.16-12.15,2.31-18.22,3.47c-11.52-8.01-23.05-16.01-34.57-24.03c-1.12-0.78-2.17-1.65-3.25-2.48
		C337.81,301.08,344.15,300,350.48,298.92z"/>
	<path class="st2" d="M224.76,321.93c11.39,7.92,22.79,15.84,34.17,23.77c1.1,0.77,2.13,1.65,3.19,2.48
		c-6.11,1.11-12.23,2.22-18.34,3.32c-11.3-7.79-22.6-15.58-33.88-23.39c-1.31-0.9-2.52-1.94-3.78-2.91
		C212.34,324.11,218.55,323.02,224.76,321.93z"/>
	<path class="st2" d="M287.46,310.28c11.26,7.86,22.51,15.71,33.76,23.57c1.31,0.92,2.57,1.92,3.85,2.88
		c-6.26,1.1-12.52,2.19-18.78,3.29c-11.36-7.93-22.73-15.84-34.08-23.79c-1.09-0.76-2.44-1.23-3.1-2.53
		C275.23,312.56,281.35,311.42,287.46,310.28z"/>
	<path class="st2" d="M390.7,360.17c-10.52,10.59-21.04,21.16-31.54,31.77c-0.69,0.69-1.44,0.91-2.34,0.91c-5.47,0-10.94,0-17.47,0
		c11.26-11.32,21.88-22.01,32.51-32.69C378.14,360.17,384.42,360.17,390.7,360.17z"/>
	<path class="st2" d="M326.8,360.09c-4.63,5.69-10.2,10.48-15.3,15.71c-4.95,5.08-10.02,10.03-15.05,15.03
		c-0.95,0.94-1.74,2.06-3.36,2.05c-5.46-0.06-10.91-0.02-17.49-0.02c11.3-11.35,21.92-22.02,32.54-32.69
		C314.36,360.14,320.58,360.11,326.8,360.09z"/>
	<path class="st3" d="M403.09,430.59c0.76,1.14,0.43,2.42,0.43,3.64c0.02,31.03,0.03,62.07,0.01,93.1c0,1.61-0.09,3.25-0.4,4.82
		c-0.57,2.89-2.39,4.53-5.4,4.71c-0.62,0.04-1.25,0.03-1.87,0.03c-58.08,0-116.16,0-174.24-0.01c-0.87,0-1.74-0.09-2.61-0.14
		c0.35-0.92,0.64-1.87,1.06-2.77c4.6-9.9,10.96-18.5,18.6-26.31c5.91-6.05,12.66-11.15,18.52-17.21c1.61-0.11,2.72-1.24,3.86-2.13
		c12.01-9.37,25.16-16.93,38.61-23.92c21.21-11.04,43.2-20.22,66.32-26.56C378.18,434.5,390.47,431.73,403.09,430.59z"/>
	<path class="st3" d="M257.19,490.46c-5.86,6.06-12.61,11.16-18.52,17.21c-7.64,7.82-14,16.41-18.6,26.31
		c-0.41,0.89-0.71,1.84-1.06,2.77c-5.98,0.04-11.96,0.13-17.94,0.1c-4.84-0.02-6.8-2.14-6.81-7.26
		c-0.02-22.56-0.01-45.11-0.01-67.67c0-12.34,0.03-24.67-0.03-37.01c-0.01-2.05,0.22-3.18,2.77-3.16
		c19.56,0.1,39.13,0.06,58.69,0.07c0.49,0,0.98,0.16,1.46,0.25c0,21.03-0.03,42.05,0.08,63.08
		C257.25,486.92,256.13,488.7,257.19,490.46z"/>
	<path class="st3" d="M257.19,490.46c-1.06-1.76,0.05-3.54,0.04-5.31c-0.11-21.03-0.08-42.05-0.08-63.08
		c1.61-0.09,3.22-0.25,4.83-0.25c45.32-0.02,90.63-0.03,135.95-0.02c6.03,0,5.2-0.8,5.27,5.43c0.01,1.12-0.07,2.24-0.1,3.36
		c-12.63,1.13-24.92,3.91-37.12,7.26c-23.12,6.34-45.11,15.52-66.32,26.56c-13.45,7-26.6,14.55-38.61,23.92
		C259.91,489.22,258.8,490.35,257.19,490.46z"/>
	<path class="st2" d="M191.87,352.65c1.95,0.22,3.18,1.54,2.99,3.68c-0.16,1.88-1.34,3.21-3.45,3.16c-2.25-0.05-3.52-1.46-3.47-3.53
		C187.99,353.87,189.34,352.6,191.87,352.65z"/>
	<path class="st2" d="M195.1,369.18c-0.17,2.42-1.15,3.84-3.4,3.88c-2.22,0.05-3.47-1.21-3.5-3.4c-0.03-2.01,1.09-3.23,3.13-3.4
		C193.6,366.08,194.63,367.46,195.1,369.18z"/>
</g>
</svg>
